<?xml version="1.0" standalone="no"?>
<!DOCTYPE svg PUBLIC "-//W3C//DTD SVG 20010904//EN"
 "http://www.w3.org/TR/2001/REC-SVG-20010904/DTD/svg10.dtd">
<svg version="1.0" xmlns="http://www.w3.org/2000/svg"
 width="1000.000000pt" height="1000.000000pt" viewBox="0 0 1000.000000 1000.000000"
 preserveAspectRatio="xMidYMid meet">
<metadata>
Created by potrace 1.11, written by Peter Selinger 2001-2013
</metadata>
<g transform="translate(0.000000,1000.000000) scale(0.100000,-0.100000)"
fill="#000000" stroke="none">
<path d="M4627 9994 c-1 -1 -114 -5 -252 -8 -137 -4 -279 -9 -315 -11 -36 -2
-117 -6 -180 -10 -198 -10 -415 -26 -565 -41 -192 -20 -229 -24 -245 -29 -8
-2 -35 -7 -60 -10 -25 -3 -63 -11 -85 -17 -22 -5 -49 -12 -61 -14 -105 -19
-146 -64 -138 -152 5 -70 21 -111 51 -137 20 -18 22 -27 17 -84 -3 -36 -10
-73 -15 -83 -6 -10 -9 -26 -8 -36 4 -40 -15 -84 -48 -110 -43 -34 -63 -71 -63
-118 0 -23 -11 -55 -30 -86 -16 -26 -30 -52 -30 -57 0 -5 -3 -11 -8 -13 -6 -2
-261 -420 -335 -549 -24 -42 -29 -82 -31 -244 -1 -108 -5 -147 -18 -170 -15
-28 -15 -32 3 -66 17 -34 18 -63 18 -356 0 -295 1 -492 5 -703 1 -62 -3 -99
-17 -135 -68 -182 -74 -216 -45 -275 11 -21 29 -42 39 -45 20 -7 20 -19 15
-1593 -3 -873 -5 -1594 -6 -1602 0 -8 1 -355 3 -770 4 -691 3 -757 -12 -780
-45 -67 -47 -126 -9 -188 21 -35 23 -48 26 -255 2 -151 0 -223 -8 -232 -8 -10
-8 -19 -1 -34 6 -11 11 -52 11 -91 0 -94 18 -129 99 -196 36 -30 68 -54 72
-54 21 0 236 -137 290 -185 46 -41 139 -149 139 -162 0 -6 6 -16 14 -22 8 -7
26 -37 41 -67 29 -58 63 -87 125 -104 79 -21 184 -36 325 -45 44 -3 103 -7
130 -10 28 -2 97 -7 155 -10 58 -3 146 -7 195 -10 447 -24 1803 -24 2325 0
267 13 350 17 385 20 22 2 78 7 125 10 47 3 96 7 110 9 14 3 52 7 85 11 93 9
191 34 226 58 19 13 46 48 64 83 17 34 38 69 48 78 9 10 17 21 17 26 0 9 131
144 170 176 24 19 135 86 244 149 71 40 126 94 149 145 18 43 19 74 22 745 2
385 3 738 2 785 -1 94 0 830 1 858 1 9 0 64 -2 122 -1 59 2 123 9 145 8 26 8
50 2 70 -5 17 -11 55 -13 85 -3 48 0 60 22 85 60 69 59 142 -1 230 -20 30 -20
40 -21 855 0 794 0 826 19 857 20 35 19 74 -3 128 -8 19 -14 101 -16 227 l-3
197 35 35 c18 18 34 42 35 53 0 10 2 26 4 35 5 28 -13 95 -42 151 l-26 52 2
513 3 514 23 34 c30 44 30 96 -1 157 -13 27 -24 61 -23 75 0 15 1 134 1 265 0
130 0 243 0 250 1 25 -21 102 -30 105 -5 1 -7 24 -4 51 6 64 -25 113 -91 144
-35 16 -49 29 -53 49 -4 15 -15 36 -25 47 -11 11 -19 25 -19 31 0 5 -4 10 -8
10 -4 0 -18 19 -30 43 -12 23 -35 62 -51 87 -16 25 -30 54 -30 66 -1 11 -13
31 -27 45 -15 13 -37 48 -50 77 -14 29 -35 65 -49 80 -16 17 -25 39 -25 60 0
18 -6 35 -14 38 -7 3 -19 24 -26 47 -7 23 -16 53 -21 67 -15 46 -29 174 -21
198 2 6 10 12 17 12 20 0 43 78 47 157 3 84 -49 118 -227 148 -16 3 -39 7 -50
9 -11 2 -63 9 -115 16 -52 6 -108 14 -125 16 -16 3 -55 8 -85 10 -30 3 -71 7
-90 9 -19 2 -80 6 -135 10 -55 4 -108 9 -117 10 -9 2 -86 7 -170 10 -84 4
-180 9 -213 10 -155 9 -1321 25 -1328 19z"/>
</g>
</svg>
