<svg xmlns="http://www.w3.org/2000/svg" width="690" height="62.375" viewBox="0 0 690 62.375">
  <g id="Group_8" data-name="Group 8" transform="translate(-607 -543)">
    <line id="Line_5" data-name="Line 5" x2="592" transform="translate(651.5 579.5)" fill="none" stroke="#fff" stroke-width="1"/>
    <text id="ROLIG" transform="translate(607 564)" fill="snow" font-size="22" font-family="LucidaGrande, Lucida Grande"><tspan x="0" y="0">ROLIG</tspan></text>
    <text id="LIVLIG" transform="translate(1230 564)" fill="snow" font-size="22" font-family="LucidaGrande, Lucida Grande"><tspan x="0" y="0">LIVLIG</tspan></text>
    <path id="Path_2" data-name="Path 2" d="M383.332,243.518a19.1,19.1,0,0,1,2-2.98,28.816,28.816,0,0,1,3.956-4.521c.308-.27,1.224-1.054,2.466-1.952.053-.038.368-.435.564-.686a.959.959,0,0,0,.175-.609c-.009-.2-.083.009-.507-.611a1.642,1.642,0,0,0-.632-.624,4.018,4.018,0,0,1-.508-.73,2.007,2.007,0,0,1-.255-.556,2.812,2.812,0,0,1-.081-1,6.159,6.159,0,0,1,.522-2.341,6.406,6.406,0,0,1,.962-1.5,9.79,9.79,0,0,1,3.385-2.469,10.06,10.06,0,0,1,3.477-.834,10.825,10.825,0,0,1,1.866.07c.508.061.863.124,1.57.176a6.042,6.042,0,0,1,1.869.454c.34.1.664.157,1.148.32a7.764,7.764,0,0,1,1.638.812,6.479,6.479,0,0,1,1.17.8,5.848,5.848,0,0,1,1.507,1.6,4.7,4.7,0,0,1,.533,1.275,6.367,6.367,0,0,1,.127,1.206,4.317,4.317,0,0,1-.093,1.831,3.456,3.456,0,0,1-.579.881c-.157.161-.288.345-.44.51a.607.607,0,0,0-.116.162c-.032.068-.033.03,0,.342.011.1.081.231.116.4a4.631,4.631,0,0,1,.212.433,2.6,2.6,0,0,0,.479.814,4.483,4.483,0,0,0,.779.8c.389.308.324.454.779.805.194.149.237.2.672.58.526.461.6.51.867.744a16.5,16.5,0,0,1,1.333,1.332,13.261,13.261,0,0,1,1.039,1.226,15.814,15.814,0,0,1,1.2,2.078c.388.747.666,1.323.773,1.545.881,1.829,1.321,2.744,1.461,3.1a13.141,13.141,0,0,1,.8,4.182,23.261,23.261,0,0,1-.356,5.605,27.372,27.372,0,0,1-1.112,5.294,20.291,20.291,0,0,1-6.5,9.031,20.812,20.812,0,0,1-4.849,2.892,11.791,11.791,0,0,1-3.07.979,16.456,16.456,0,0,1-3.292,0c-3.534-.133-3.2.079-4.137-.089a12.16,12.16,0,0,1-4.671-2.136,21.1,21.1,0,0,1-3.559-2.936,20.445,20.445,0,0,1-4.671-7.074,24.129,24.129,0,0,1-1.023-3.6,28.565,28.565,0,0,1-.489-3.337,27.4,27.4,0,0,1,.178-6.94A15.017,15.017,0,0,1,383.332,243.518Z" transform="translate(543.297 330.903)" fill="#fff"/>
  </g>
</svg>
