<svg xmlns="http://www.w3.org/2000/svg" viewBox="0 0 184.25 261.37"><defs><style>.cls-1{fill:#fff;}</style></defs><g id="Layer_2" data-name="Layer 2"><g id="Layout"><path class="cls-1" d="M92.13,255.12a7.07,7.07,0,0,1,6.07,3.46c1,1.65,3.19,3,4.86,2.76,45.72-6.57,81.19-53.77,81.19-111.1,0-43-19.77-80.46-49.11-99a8.5,8.5,0,0,1-4-7.18,8.34,8.34,0,0,1,1.29-4.45,21.33,21.33,0,0,0,3.6-11.23C136.06,12.69,116.39,0,92.13,0S48.19,12.69,48.19,28.35a21.33,21.33,0,0,0,3.6,11.23A8.34,8.34,0,0,1,53.08,44a8.5,8.5,0,0,1-4,7.18C19.77,69.78,0,107.28,0,150.24c0,57.33,35.47,104.53,81.19,111.1,1.67.24,3.87-1.11,4.86-2.76A7.07,7.07,0,0,1,92.13,255.12Z"/></g></g></svg>
