<svg xmlns="http://www.w3.org/2000/svg" viewBox="0 0 235.21 235.2"><defs><style>.cls-1{fill:#093a83;}.cls-2,.cls-3{fill:none;stroke-miterlimit:10;}.cls-2{stroke:#9d9fa1;stroke-width:2.55px;}.cls-3{stroke:#fbc277;stroke-width:31.18px;}.cls-4{fill:#fff;}.cls-5{fill:#1b1045;}.cls-6{fill:#9d9fa1;}.cls-7{fill:#bfe1da;}</style></defs><g id="Layer_2" data-name="Layer 2"><g id="nul_alko" data-name="nul alko"><circle class="cls-1" cx="117.6" cy="117.6" r="77.35"/><circle class="cls-2" cx="117.6" cy="117.6" r="81.6"/><circle class="cls-3" cx="117.6" cy="117.6" r="102.01" transform="translate(-48.71 117.6) rotate(-45)"/></g><g id="Layer_3" data-name="Layer 3"><polygon class="cls-4" points="141.44 105.09 141.44 161.21 171.89 161.21 171.89 151.17 151.95 151.17 151.95 105.09 141.44 105.09"/><path class="cls-4" d="M117.56,53.85a18,18,0,0,0-7.84,1.56c-5.87,2.82-7.34,9-7.34,14.4V81.15h11.15V68.55c0-2.83,1.64-4.66,4.19-4.66a4,4,0,0,1,2.9,1.13,4.86,4.86,0,0,1,1.29,3.53v12.6h11.14V69.81c0-10.15-5.64-16-15.49-16"/><path class="cls-4" d="M102.39,105.09v41.57c0,6.91,2.4,11.61,7,14a18,18,0,0,0,8.17,1.7c10,0,15.5-5.56,15.5-15.65V105.09H121.91v42.83a4.84,4.84,0,0,1-1.29,3.53,4,4,0,0,1-2.9,1.14c-2.55,0-4.19-1.83-4.19-4.67V105.09Z"/><polygon class="cls-4" points="85.53 105.09 85.53 140.88 85 140.88 74.62 106.13 64.59 106.13 64.59 162.25 73.06 162.25 73.06 126.46 73.59 126.46 83.97 161.21 94 161.21 94 105.09 85.53 105.09"/><rect class="cls-5" x="153" y="105.09" width="2.09" height="45.04"/><polygon class="cls-5" points="171.89 150.13 171.89 150.13 171.89 150.13 171.89 162.25 173.98 162.25 173.98 150.13 171.89 150.13"/><path class="cls-5" d="M116.08,65.34a2.72,2.72,0,0,0-1,1.1,4.51,4.51,0,0,0-.46,2.11v12.6h2.09V68.55c0-1.79.73-3,2.1-3.46a3.34,3.34,0,0,0-1-.16,3.27,3.27,0,0,0-1.64.41"/><path class="cls-5" d="M119.65,52.8c-.36,0-.7,0-1,0,9.89.42,15.49,6.78,15.49,17V81.15h2.08V69.81c0-10.55-6-17-16.53-17"/><path class="cls-5" d="M117.72,151.54a3.37,3.37,0,0,0,.93-.13l.11,0c-1.37-.41-2.1-1.67-2.1-3.46V105.09h-2.09v42.83c0,2.21,1.1,3.62,3.15,3.62"/><path class="cls-5" d="M134.1,105.09h0v41.57c0,5-1.38,9.21-4.14,12.13-2.58,2.73-6.38,4.33-11.38,4.53.36,0,.7,0,1.07,0,11,0,16.53-6.61,16.53-16.69V105.09Z"/><polygon class="cls-5" points="84.49 134.95 84.49 128.56 77.48 105.09 75.4 105.09 84.31 134.95 84.49 134.95"/><polygon class="cls-5" points="74.1 132.39 74.1 162.25 76.18 162.25 76.18 138.78 74.27 132.39 74.1 132.39"/><rect class="cls-5" x="95.04" y="105.09" width="2.09" height="57.17"/><polygon class="cls-5" points="84.49 134.95 84.49 128.56 84.49 128.56 84.49 134.95"/><polygon class="cls-5" points="74.1 162.25 74.1 162.25 74.1 132.39 74.1 162.25"/><polygon class="cls-6" points="153 150.13 153 105.09 151.95 105.09 151.95 151.17 171.89 151.17 171.89 150.13 153 150.13"/><polygon class="cls-6" points="141.44 161.21 141.44 105.09 140.4 105.09 140.4 162.25 171.89 162.25 171.89 161.21 141.44 161.21"/><path class="cls-6" d="M118.61,52.84c-.35,0-.69,0-1,0-5.43,0-9.36,1.61-12,4.37-2.88,3-4.22,7.39-4.22,12.64V81.15h1V69.81c0-5.41,1.46-11.58,7.34-14.4a17.88,17.88,0,0,1,7.83-1.56c9.85,0,15.49,5.81,15.49,16V81.15h1V69.81c0-10.19-5.6-16.55-15.49-17"/><path class="cls-6" d="M117.72,63.89c-2.55,0-4.19,1.83-4.19,4.66v12.6h1V68.55a4.39,4.39,0,0,1,.46-2.11,2.72,2.72,0,0,1,1-1.1,3.27,3.27,0,0,1,1.64-.41,3.39,3.39,0,0,1,1,.16c1.37.42,2.11,1.67,2.11,3.46v12.6h1V68.55A4.86,4.86,0,0,0,120.62,65a4,4,0,0,0-2.9-1.13"/><path class="cls-6" d="M134.1,105.09h-1v41.57c0,10.09-5.5,15.65-15.49,15.65a18,18,0,0,1-8.17-1.7c-4.61-2.34-7-7-7-14V105.09h-1v41.57c0,10.39,5.2,16.69,16.22,16.69.35,0,.68,0,1,0h0c5-.19,8.8-1.8,11.38-4.52,2.76-2.92,4.14-7.09,4.14-12.13Z"/><path class="cls-6" d="M117.72,152.59a4,4,0,0,0,2.9-1.14,4.84,4.84,0,0,0,1.29-3.53V105.09h-1v42.83c0,1.79-.74,3.05-2.11,3.46l-.11,0a3.37,3.37,0,0,1-.93.13c-2,0-3.15-1.41-3.15-3.62V105.09h-1v42.83c0,2.84,1.64,4.67,4.19,4.67"/><polygon class="cls-6" points="85 140.88 85.53 140.88 85.53 105.09 84.49 105.09 84.49 105.09 84.49 134.95 84.49 134.95 84.31 134.95 75.4 105.09 63.55 105.09 63.55 162.25 64.59 162.25 64.59 106.13 74.62 106.13 85 140.88"/><polygon class="cls-6" points="94 105.09 94 161.21 83.97 161.21 73.59 126.46 73.06 126.46 73.06 162.25 74.1 162.25 74.1 132.39 74.27 132.39 83.19 162.25 95.04 162.25 95.04 105.09 94 105.09"/><polygon class="cls-7" points="82.46 87.8 82.46 100.56 79.67 100.56 79.67 87.8 74.84 87.8 74.84 85.48 87.27 85.48 87.27 87.8 82.46 87.8"/><path class="cls-7" d="M95,98.35c1.92,0,3.22-1.32,3.22-3.76v-9.1H101v9.12c0,3.93-2.62,6.2-6,6.2a5.78,5.78,0,0,1-6-6.2V85.49h2.79v9.1c0,2.44,1.32,3.76,3.22,3.76"/><path class="cls-7" d="M103.91,85.49h4.33c3.37,0,5.13,1.57,5.13,4a3.36,3.36,0,0,1-2.11,3.14,3.79,3.79,0,0,1,3,3.66c0,2.66-2.07,4.29-5.33,4.29h-5.06Zm4.17,6.38c1.57,0,2.56-.7,2.56-2s-1-2-2.56-2h-1.45v4.07Zm.72,6.38c1.59,0,2.67-.83,2.67-2.17s-1.08-2.15-2.67-2.15h-2.17v4.32Z"/><path class="cls-7" d="M131.35,93a7.7,7.7,0,1,1-7.7-7.78,7.74,7.74,0,0,1,7.7,7.78m-12.62,0a4.92,4.92,0,1,0,4.92-5.2,5,5,0,0,0-4.92,5.2"/><path class="cls-7" d="M136.56,100.56h-2.78V85.49H138c3.33,0,5.7,1.71,5.7,4.66a4.21,4.21,0,0,1-2.95,4.13l4.68,6.28h-3.24l-4.31-5.82h-1.35Zm-.05-8H138c1.71,0,2.87-.85,2.87-2.36s-1.16-2.37-2.87-2.37h-1.47Z"/><path class="cls-7" d="M160.61,92.55c0,.27,0,.54,0,.8a7,7,0,0,1-7.29,7.46,7.79,7.79,0,0,1,0-15.57A7.15,7.15,0,0,1,159.7,89l-2.33,1.4a4.56,4.56,0,0,0-4-2.5,5,5,0,0,0-4.9,5.16,5.09,5.09,0,0,0,4.94,5.25,4.23,4.23,0,0,0,4.34-3.41h-4.17V92.55Z"/></g><g id="outline"><path class="cls-1" d="M42.29,34l10-8.1L55,29.23,49,34l2.57,3.17,6-4.83.89,4.49-4.31,3.49,2.73,3.38,6-4.83,2.68,3.31-10,8.12Z"/><path class="cls-1" d="M57.84,22l3.41-1.78,14.07,6.81L69.52,16l4.15-2.17,9.71,18.63L80,34.16l-14.24-7,5.89,11.31-4.12,2.15Z"/><path class="cls-1" d="M94.4,7.3l3.81-.49,10.85,11.25L107.47,5.62,112.11,5l2.66,20.83-3.75.48-11-11.45,1.62,12.64-4.61.59Z"/><path class="cls-1" d="M122.65,17.92,115.94,4.81l5.71.43,4,8.51,5.19-7.82,5.39.41-8.42,12-.64,8.41L122,26.33Z"/><path class="cls-1" d="M140.51,7.23l5,1.45-2.25,7.72,7.26,2.11,2.25-7.71,5,1.45-5.88,20.16-5-1.45,2.43-8.35-7.25-2.12-2.44,8.35-5-1.45Z"/><path class="cls-1" d="M164.79,15.45l11.38,6-2,3.76-6.76-3.57-1.91,3.6,6.79,3.59-3.78,2.59-4.91-2.6-2,3.85,6.79,3.59-2,3.76L155,34Z"/><path class="cls-1" d="M182.08,25.1l6.37,5.29c5.43,4.5,6.25,10.56,2.2,15.43s-10.32,5.12-15.61.73l-6.37-5.28Zm-4.85,17.73c2.93,2.44,6.55,2.87,9.31-.46s1.75-6.57-1.34-9.14l-1.89-1.57-8,9.6Z"/><path class="cls-1" d="M38.38,164l2.26,3.11L36,182l10.15-7.36,2.74,3.78-17,12.33-2.22-3,4.79-15.11-10.32,7.48-2.73-3.76Z"/><path class="cls-1" d="M43.43,189.93l7.73-9,4,3.41-7.89,9.16c-1.93,2.26-1.78,4.52,0,6s4,1.34,6-.94L61,189.41l4,3.41-7.73,9c-4.13,4.81-9,4.68-13.06,1.2S39.3,194.73,43.43,189.93Z"/><path class="cls-1" d="M67.84,194.41,72.38,197l-8.26,14.56,6.78,3.85-2.1,3.7-11.32-6.42Z"/><path class="cls-1" d="M97.5,224.52l-8.33-1.9L87,225.86l-5.24-1.19,14.06-18.34,2.87.66.52,2.45,4.26,20.18-5.27-1.2Zm-.68-4.28-1.17-7-4,5.86Z"/><path class="cls-1" d="M108.35,208.65l5.22.22-.69,16.72,7.79.32-.17,4.26-13-.54Z"/><path class="cls-1" d="M122.22,209.13l5.18-.67,1.11,8.59,4.9-9.37,5.74-.75-5.87,10.75,9.29,10-6.25.81-7.4-8.29,1.18,9.1-5.17.68Z"/><path class="cls-1" d="M140.92,217.38c-2.15-6.11,1.13-11.83,6.84-13.84s11.82.44,14,6.55-1.13,11.84-6.82,13.83S143.1,223.61,140.92,217.38Zm15.82-5.54c-1.16-3.31-4.3-5-7.44-3.91a6.16,6.16,0,0,0,4.07,11.61C156.51,218.43,157.9,215.15,156.74,211.84Z"/><path class="cls-1" d="M160.44,198.8l4.33-2.86,4.43,6.71,6.31-4.17-4.43-6.71,4.33-2.86L187,206.43l-4.33,2.86-4.8-7.26-6.31,4.17,4.8,7.26L172,216.32Z"/><path class="cls-1" d="M184.87,194.87c-4.76-4.4-4.54-11-.43-15.44s10.65-5.15,15.41-.74,4.54,11,.44,15.41S189.71,199.35,184.87,194.87Zm11.39-12.31c-2.57-2.38-6.14-2.42-8.41,0a6.16,6.16,0,0,0,9,8.36C199.14,188.5,198.84,185,196.26,182.56Z"/><path class="cls-1" d="M193.31,169l2.67-4.48,14.37,8.58,4-6.7,3.66,2.18-6.67,11.18Z"/></g></g></svg>
